<?xml version="1.0" standalone="no"?>
<!DOCTYPE svg PUBLIC "-//W3C//DTD SVG 20010904//EN"
 "http://www.w3.org/TR/2001/REC-SVG-20010904/DTD/svg10.dtd">
<svg version="1.0" xmlns="http://www.w3.org/2000/svg"
 width="281.000000pt" height="281.000000pt" viewBox="0 0 281.000000 281.000000"
 preserveAspectRatio="xMidYMid meet">
<metadata>
Created by potrace 1.14, written by Peter Selinger 2001-2017
</metadata>
<g transform="translate(0.000000,281.000000) scale(0.100000,-0.100000)"
fill="#000000" stroke="none">
<path d="M1347 2804 c-1 -1 -36 -5 -78 -8 -42 -3 -123 -17 -180 -32 -57 -14
-116 -29 -131 -31 -16 -3 -28 -9 -28 -14 0 -5 -7 -9 -16 -9 -16 0 -135 -51
-164 -70 -8 -5 -28 -17 -45 -26 -40 -22 -138 -88 -172 -117 -110 -91 -303
-310 -303 -343 0 -8 -4 -14 -8 -14 -7 0 -104 -182 -109 -205 -1 -5 -13 -43
-27 -83 -59 -168 -70 -242 -70 -452 0 -189 1 -199 33 -324 19 -71 40 -141 47
-155 8 -14 14 -31 14 -38 0 -16 99 -203 116 -220 8 -8 14 -20 14 -28 0 -7 3
-15 8 -17 4 -1 27 -30 51 -63 81 -110 318 -325 357 -325 7 0 14 -4 16 -9 4
-10 196 -111 212 -111 6 0 23 -6 37 -14 38 -19 264 -74 334 -81 235 -21 437 6
663 89 54 20 223 106 240 123 7 7 16 13 20 13 4 0 20 11 36 25 16 14 33 25 38
25 18 0 255 246 294 305 21 33 41 62 44 65 13 13 84 148 100 190 7 19 19 49
25 65 90 217 114 543 59 785 -9 36 -18 72 -21 80 -8 19 -7 18 -17 60 -5 19
-12 40 -16 45 -3 6 -17 38 -30 72 -12 35 -35 83 -51 108 -16 25 -29 50 -29 55
0 5 -6 15 -12 22 -7 7 -33 43 -57 78 -85 123 -199 237 -321 320 -36 25 -67 47
-70 50 -20 20 -158 88 -255 124 -91 35 -261 75 -345 82 -82 6 -200 11 -203 8z
m268 -298 c17 -4 37 -9 45 -12 8 -3 25 -8 38 -10 74 -14 252 -89 252 -106 0
-5 3 -7 8 -6 7 3 97 -52 136 -82 35 -28 181 -175 201 -204 11 -15 25 -33 31
-40 5 -6 13 -18 17 -26 4 -8 17 -31 29 -50 56 -92 117 -250 133 -346 13 -78
22 -208 18 -258 -6 -88 -12 -140 -18 -171 -4 -26 -8 -40 -21 -90 -15 -57 -52
-154 -57 -148 -4 3 -7 -3 -7 -15 0 -22 -31 -82 -42 -82 -5 0 -8 -7 -8 -15 0
-8 -14 -34 -30 -58 -17 -23 -38 -53 -48 -66 -19 -27 -153 -164 -193 -196 -67
-56 -268 -165 -302 -165 -9 0 -17 -3 -17 -8 0 -4 -35 -15 -77 -25 -43 -10 -89
-21 -103 -24 -14 -3 -88 -8 -165 -9 -130 -4 -183 2 -310 31 -11 3 -35 8 -52
11 -18 3 -33 11 -33 16 0 5 -4 7 -8 4 -5 -3 -29 4 -53 15 -100 47 -114 54
-119 59 -10 10 -45 31 -62 36 -10 4 -18 10 -18 14 0 4 -10 12 -22 17 -49 23
-204 171 -235 224 -10 16 -21 29 -25 29 -4 0 -8 7 -8 15 0 8 -4 15 -9 15 -5 0
-11 8 -15 17 -5 18 -26 53 -36 63 -11 11 -40 73 -40 86 0 8 -5 14 -10 14 -6 0
-9 3 -8 8 1 7 -4 24 -22 67 -14 35 -38 138 -51 217 -16 108 -3 341 24 423 2 6
7 27 12 48 4 20 11 40 16 43 5 3 9 16 9 29 0 13 5 27 10 30 6 4 8 11 5 16 -4
5 -1 9 4 9 6 0 11 7 11 16 0 14 27 71 40 84 10 10 31 45 36 63 4 9 10 17 14
17 4 0 12 10 17 23 18 37 182 217 198 217 3 0 18 11 33 25 15 14 32 25 39 25
7 0 13 3 13 8 0 4 17 16 38 27 20 11 39 23 42 27 8 11 137 68 154 68 8 0 17 4
20 9 5 7 23 13 86 27 8 1 42 9 75 18 61 15 354 16 420 2z"/>
<path d="M1365 2254 c-5 -2 -44 -8 -85 -13 -41 -6 -82 -12 -90 -14 -8 -2 -34
-8 -57 -12 -24 -4 -43 -11 -43 -15 0 -4 -16 -11 -35 -14 -19 -4 -35 -11 -35
-16 0 -6 -7 -10 -16 -10 -9 0 -36 -13 -61 -30 -24 -16 -46 -30 -48 -30 -9 0
-50 -36 -112 -96 -35 -33 -66 -58 -70 -55 -3 3 -3 1 0 -5 3 -5 -6 -24 -21 -42
-15 -17 -38 -53 -52 -79 -14 -26 -28 -49 -32 -51 -5 -2 -8 -12 -8 -21 0 -10
-3 -21 -7 -25 -5 -4 -8 -11 -9 -14 -1 -8 -11 -35 -24 -67 -29 -69 -43 -267
-27 -375 12 -84 62 -242 78 -248 5 -2 9 -8 9 -14 0 -14 64 -119 92 -150 13
-14 37 -40 53 -59 17 -19 50 -50 75 -69 25 -19 46 -38 48 -42 2 -5 10 -8 18
-8 8 0 14 -5 14 -12 0 -6 3 -9 6 -5 4 3 23 -5 43 -18 19 -14 41 -25 46 -25 6
0 31 -10 55 -21 56 -27 218 -61 290 -61 94 0 181 13 257 38 41 13 80 24 88 24
8 0 15 5 15 10 0 6 6 10 13 10 18 0 167 90 167 101 0 5 5 9 11 9 13 0 139 124
139 137 0 5 10 19 23 33 29 31 103 177 112 222 4 18 11 38 15 43 15 20 29 130
30 225 1 136 -19 231 -76 358 -13 29 -24 57 -24 62 0 6 -4 10 -10 10 -5 0 -10
4 -10 10 0 15 -54 89 -65 90 -5 0 -20 -17 -32 -38 l-21 -38 21 -40 c12 -21 24
-41 27 -44 12 -12 43 -86 55 -130 1 -3 4 -12 8 -20 20 -52 36 -314 21 -348 -4
-9 -9 -28 -11 -42 -5 -32 -34 -112 -45 -125 -4 -5 -8 -15 -8 -21 0 -50 -160
-241 -250 -300 -25 -16 -47 -31 -50 -35 -7 -8 -153 -68 -177 -72 -10 -2 -25
-7 -33 -10 -8 -3 -43 -8 -77 -11 -34 -2 -66 -7 -70 -9 -10 -6 -181 17 -242 33
-53 13 -211 90 -211 102 0 4 -5 8 -11 8 -7 0 -22 10 -34 23 -12 12 -39 36 -58
52 -20 17 -36 33 -37 37 0 4 -13 22 -30 40 -16 18 -30 36 -30 40 0 4 -7 16
-15 25 -8 10 -15 22 -14 27 0 5 -3 12 -9 15 -13 8 -62 135 -62 160 0 11 -4 22
-8 25 -20 12 -22 248 -3 331 7 33 16 67 19 75 3 8 6 17 6 20 3 14 73 147 84
158 6 7 12 17 12 21 0 4 20 29 45 57 24 27 44 52 45 57 0 4 4 7 9 7 5 0 26 16
46 35 21 19 46 37 56 40 10 4 19 10 19 15 0 5 14 11 30 15 17 4 30 10 30 14 0
6 83 40 115 47 6 2 33 9 60 16 28 7 93 13 145 13 92 0 120 8 120 34 0 6 5 11
11 11 5 0 7 5 4 10 -3 6 -1 10 4 10 6 0 11 7 11 15 0 14 -17 20 -47 16 -6 -1
-29 2 -50 7 -21 5 -42 7 -48 6z"/>
</g>
</svg>
