<?xml version="1.0" encoding="utf-8"?>
<!-- Generator: Adobe Illustrator 28.1.0, SVG Export Plug-In . SVG Version: 6.00 Build 0)  -->
<svg version="1.1" id="icon_x5F_facs" xmlns="http://www.w3.org/2000/svg" xmlns:xlink="http://www.w3.org/1999/xlink" x="0px"
	 y="0px" viewBox="0 0 32 32" style="enable-background:new 0 0 32 32;" xml:space="preserve">
<style type="text/css">
	.st0{fill:#4C6586;}
</style>
<path class="st0" d="M24.5,1.5h-12c0,0-0.5,0-0.9,0.4L7.4,6.1C7.4,6.1,7,6.5,7,7v17c0,0,0,0.5,0.5,0.5H13v-2H9v-14h5v-5h9v19h-4v2
	h5.5c0,0,0.5,0,0.5-0.5V2C25,2,25,1.5,24.5,1.5z"/>
<polygon id="Rahmen" class="st0" points="10.4,25.8 16,30.7 21.6,25.8 17.9,25.8 17.9,19.8 14.1,19.8 14.1,25.8 "/>
</svg>
