<?xml version="1.0" encoding="utf-8"?>
<!-- Generator: Adobe Illustrator 28.1.0, SVG Export Plug-In . SVG Version: 6.00 Build 0)  -->
<svg version="1.1" id="icon_x5F_logs" xmlns="http://www.w3.org/2000/svg" xmlns:xlink="http://www.w3.org/1999/xlink" x="0px"
	 y="0px" viewBox="0 0 32 32" style="enable-background:new 0 0 32 32;" xml:space="preserve">
<style type="text/css">
	.st0{fill:url(#Pfad_00000150804759725508739750000005563485443217841806_);}
</style>
<linearGradient id="Pfad_00000000927267362991828790000001652917569163379111_" gradientUnits="userSpaceOnUse" x1="3.4086" y1="16" x2="28.5515" y2="16">
	<stop  offset="0" style="stop-color:#4C6586"/>
	<stop  offset="7.292820e-03" style="stop-color:#4C6586"/>
	<stop  offset="0.3484" style="stop-color:#4C6586"/>
	<stop  offset="0.7462" style="stop-color:#4C6586"/>
	<stop  offset="0.9912" style="stop-color:#4C6586"/>
	<stop  offset="1" style="stop-color:#4C6586"/>
</linearGradient>
<path id="Pfad" style="fill:url(#Pfad_00000000927267362991828790000001652917569163379111_);" d="M5,5v22h22V5H5z M12.2,21.8
	c-0.1,0.3-0.2,0.4-0.4,0.6c-0.2,0.2-0.4,0.3-0.6,0.4C11,22.9,10.8,23,10.5,23v1H9.7v-0.9c-0.6,0-1.2-0.1-1.7-0.3l0.3-1.3
	c0.2,0.1,0.5,0.2,0.8,0.3c0.3,0.1,0.6,0.1,0.9,0.1c0.1,0,0.3,0,0.4,0c0.2,0,0.3,0,0.4-0.1c0.1-0.1,0.2-0.2,0.3-0.3
	c0.1-0.1,0.1-0.2,0.1-0.4c0-0.1,0-0.2-0.1-0.3c-0.1-0.1-0.2-0.2-0.3-0.3c-0.1-0.1-0.3-0.1-0.4-0.2c-0.1-0.1-0.2-0.1-0.4-0.2
	l-0.7-0.3c-0.2-0.1-0.3-0.2-0.5-0.3c-0.1-0.1-0.3-0.2-0.4-0.3c-0.1-0.1-0.2-0.2-0.3-0.4C8,18.6,8,18.4,8,18.2s0.1-0.5,0.1-0.7
	c0.1-0.2,0.2-0.4,0.4-0.5s0.4-0.2,0.6-0.3c0.2-0.1,0.5-0.2,0.7-0.2v-1h0.9v0.9c0.5,0,1,0.1,1.4,0.2L12,17.7
	c-0.1-0.1-0.4-0.2-0.6-0.2c-0.3-0.1-0.5-0.1-0.8-0.1c-0.1,0-0.3,0-0.4,0c-0.1,0-0.3,0-0.4,0.1c-0.1,0-0.2,0.1-0.3,0.2
	c-0.1,0.1-0.1,0.2-0.1,0.4c0,0.1,0,0.2,0.1,0.3c0,0,0.1,0.1,0.2,0.2c0.1,0.1,0.2,0.1,0.3,0.2c0.1,0.1,0.2,0.2,0.3,0.2l0.6,0.2
	c0.2,0.1,0.3,0.2,0.5,0.3c0.2,0,0.4,0.2,0.5,0.3c0.1,0.2,0.2,0.3,0.3,0.5c0.1,0.2,0.1,0.4,0.1,0.7S12.3,21.6,12.2,21.8z M19,20.6
	l-5.1,2v-1l3.9-1.5l-3.9-1.5v-1l5.1,2V20.6z"/>
</svg>
