<svg id="Capa_1" enable-background="new 0 0 512 512" height="512" viewBox="0 0 512 512" width="512" xmlns="http://www.w3.org/2000/svg"><g><path d="m447.9 0v512h-383.8v-372.67l139.4-139.33z" fill="#F2F2F2"/><path d="m256 0h191.9v512h-191.9z" fill="#F2F2F2"/><path d="m37 204.46h438v239.18h-438z" fill="#FF0800"/><path d="m256 204.46h219v239.18h-219z" fill="#FF0800"/><path d="m203.5 0v139.33h-139.4z" fill="#CCCCCC"/><g><g><path d="m145.025 259.377h-47.733v130.917h30v-42.959h17.733c24.25 0 43.979-19.729 43.979-43.979s-19.729-43.979-43.979-43.979zm0 57.958h-17.733v-27.958h17.733c7.708 0 13.979 6.271 13.979 13.979s-6.271 13.979-13.979 13.979z" fill="#F2F2F2"/><path d="m412.75 289.377v-30h-81.987v130.917h30v-42.959h41.32v-30h-41.32v-27.958z" fill="#F2F2F2"/><path d="m260.14 259.38h-47.65v130.49h47.65c24.3 0 44.06-19.77 44.06-44.06v-42.37c0-24.3-19.76-44.06-44.06-44.06zm14.06 86.43c0 7.75-6.3 14.06-14.06 14.06h-17.65v-70.49h17.65c7.76 0 14.06 6.31 14.06 14.06z" fill="#F2F2F2"/></g></g><path d="m304.2 303.44v42.37c0 24.29-19.76 44.06-44.06 44.06h-4.14v-30h4.14c7.76 0 14.06-6.31 14.06-14.06v-42.37c0-7.75-6.3-14.06-14.06-14.06h-4.14v-30h4.14c24.3 0 44.06 19.76 44.06 44.06z" fill="#F2F2F2"/></g></svg>