<?xml version="1.0" encoding="utf-8"?>
<!-- Generator: Adobe Illustrator 28.1.0, SVG Export Plug-In . SVG Version: 6.00 Build 0)  -->
<svg version="1.1" id="icon_x5F_optl" xmlns="http://www.w3.org/2000/svg" xmlns:xlink="http://www.w3.org/1999/xlink" x="0px"
	 y="0px" viewBox="0 0 32 32" style="enable-background:new 0 0 32 32;" xml:space="preserve">
<style type="text/css">
	.st0{fill:url(#optl_00000116203083936798467540000004844798110429704858_);}
</style>
<linearGradient id="optl_00000143579339869023326700000012375498496512989851_" gradientUnits="userSpaceOnUse" x1="0" y1="16" x2="32" y2="16">
	<stop  offset="0" style="stop-color:#4C6586"/>
	<stop  offset="1.983430e-02" style="stop-color:#4C6586"/>
	<stop  offset="1" style="stop-color:#4C6586"/>
</linearGradient>
<path id="optl" style="fill:url(#optl_00000143579339869023326700000012375498496512989851_);" d="M0,0v32h32V0H0z M6.7,12.1
	l8.4-5.6c0,0,0.8-0.6,1.7,0l8.4,5.6c0,0,0.8,0.6-0.2,0.6H6.9C6.9,12.7,5.9,12.7,6.7,12.1z M14.4,21.9c0-0.1,0-0.1,0-0.1V14
	c0-0.4,0.4-0.4,0.4-0.4h2.5c0.4,0,0.4,0.4,0.4,0.4v7.8c0,0.1,0,0.1,0,0.1h2.1c0-0.1,0-0.1,0-0.1V14c0-0.4,0.4-0.4,0.4-0.4h2.5
	c0.4,0,0.4,0.4,0.4,0.4v7.8c0,0.1,0,0.1,0,0.1h1.3c0,0,0.4,0,0.4,0.4v0.8c0,0,0,0.4-0.4,0.4H7.7c0,0-0.4,0-0.4-0.4v-0.8
	c0,0,0-0.4,0.4-0.4h1.2c0-0.1,0-0.1,0-0.1V14c0-0.4,0.4-0.4,0.4-0.4h2.6c0.4,0,0.4,0.4,0.4,0.4v7.8c0,0.1,0,0.1,0,0.1H14.4z M26,26
	H6v-1.6h20V26z"/>
</svg>
