<?xml version="1.0" encoding="utf-8"?>
<!-- Generator: Adobe Illustrator 28.1.0, SVG Export Plug-In . SVG Version: 6.00 Build 0)  -->
<svg version="1.1" id="Layer_1" xmlns="http://www.w3.org/2000/svg" xmlns:xlink="http://www.w3.org/1999/xlink" x="0px" y="0px"
	 viewBox="0 0 32 32" style="enable-background:new 0 0 32 32;" xml:space="preserve">
<style type="text/css">
	.st0{fill:#4C6586;}
</style>
<path class="st0" d="M27.5,23.6l0.2-0.2c0.6-0.6,0.5-1.6-0.3-2.4c-0.2-0.2-0.5-0.4-0.7-0.5c2.2-4.8,1.4-10.7-2.6-14.6
	C21.7,3.3,18.3,2,15,2S8.3,3.3,5.8,5.8c-5.1,5.1-5.1,13.3,0,18.4c4,4,9.8,4.8,14.6,2.6c0.1,0.3,0.2,0.5,0.5,0.7
	c0.7,0.7,1.8,0.8,2.4,0.3l0.2-0.2l4.1,4.5H32v-4.4L27.5,23.6z M22.2,22.2c-4,4-10.4,4-14.4,0c-4-3.9-4-10.4,0-14.4
	c3.9-4,10.4-4,14.4,0C26.2,11.7,26.2,18.2,22.2,22.2z"/>
<path class="st0" d="M9.1,9.1c-1.4,1.4-2.2,3.2-2.4,5.1C6.9,14,7,13.8,7.1,13.7c4.4-4.4,11.4-4.4,15.8,0c0.2,0.2,0.3,0.3,0.4,0.5
	c-0.2-1.9-0.9-3.7-2.4-5.1c-1.6-1.6-3.8-2.4-5.9-2.4C12.9,6.6,10.7,7.5,9.1,9.1"/>
</svg>
