<?xml version="1.0" encoding="utf-8"?>
<!-- Generator: Adobe Illustrator 28.1.0, SVG Export Plug-In . SVG Version: 6.00 Build 0)  -->
<svg version="1.1" id="Layer_1" xmlns="http://www.w3.org/2000/svg" xmlns:xlink="http://www.w3.org/1999/xlink" x="0px" y="0px"
	 viewBox="0 0 22 19.1" style="enable-background:new 0 0 22 19.1;" xml:space="preserve">
<style type="text/css">
	.st0{fill:#4C6586;}
	.st1{fill:url(#SVGID_1_);}
	.st2{fill:url(#SVGID_00000132796873824175709480000008963239723144752035_);}
	.st3{fill:url(#SVGID_00000142889005187196572960000016389938044069188233_);}
</style>
<path class="st0" d="M22,14.8V0.4C22,0.2,21.8,0,21.6,0c0,0,0,0,0,0H0.4C0.2,0,0,0.2,0,0.4c0,0,0,0,0,0v14.4c0,0.2,0.2,0.4,0.4,0.4
	c0,0,0,0,0,0h8.8v2.3H7.3v1.5h7.3v-1.5h-1.9v-2.3h8.8C21.8,15.3,22,15.1,22,14.8C22,14.9,22,14.9,22,14.8z M20.5,13.6h-19v-12h19
	V13.6z"/>
<linearGradient id="SVGID_1_" gradientUnits="userSpaceOnUse" x1="-815.7129" y1="414.7971" x2="-814.7129" y2="414.7971" gradientTransform="matrix(3.5 0 0 3.5 2856.5 -1448.5)">
	<stop  offset="0" style="stop-color:#ECEBEB"/>
	<stop  offset="1" style="stop-color:#ECEBEB"/>
	<stop  offset="1" style="stop-color:#ECEBEB"/>
</linearGradient>
<rect x="1.5" y="2.5" class="st1" width="3.5" height="1.5"/>
<linearGradient id="SVGID_00000098921904987440640640000012607188337234510483_" gradientUnits="userSpaceOnUse" x1="-815.7129" y1="414.7971" x2="-814.7129" y2="414.7971" gradientTransform="matrix(3.5 0 0 3.5 2861 -1448.5)">
	<stop  offset="0" style="stop-color:#ECEBEB"/>
	<stop  offset="1" style="stop-color:#ECEBEB"/>
	<stop  offset="1" style="stop-color:#ECEBEB"/>
</linearGradient>
<rect x="6" y="2.5" style="fill:url(#SVGID_00000098921904987440640640000012607188337234510483_);" width="3.5" height="1.5"/>
<linearGradient id="SVGID_00000089566468077356053910000000191193607880278455_" gradientUnits="userSpaceOnUse" x1="-815.7129" y1="414.7971" x2="-814.7129" y2="414.7971" gradientTransform="matrix(3.5 0 0 3.5 2865.5 -1448.5)">
	<stop  offset="0" style="stop-color:#ECEBEB"/>
	<stop  offset="1" style="stop-color:#ECEBEB"/>
	<stop  offset="1" style="stop-color:#ECEBEB"/>
</linearGradient>
<rect x="10.5" y="2.5" style="fill:url(#SVGID_00000089566468077356053910000000191193607880278455_);" width="3.5" height="1.5"/>
</svg>
