<?xml version="1.0" encoding="utf-8"?>
<!-- Generator: Adobe Illustrator 28.1.0, SVG Export Plug-In . SVG Version: 6.00 Build 0)  -->
<svg version="1.1" id="Layer_1" xmlns="http://www.w3.org/2000/svg" xmlns:xlink="http://www.w3.org/1999/xlink" x="0px" y="0px"
	 viewBox="0 0 320 320" style="enable-background:new 0 0 320 320;" xml:space="preserve">
<style type="text/css">
	.st0{fill:#4C6586;}
</style>
<path class="st0" d="M265,254.8h-43.7V314h15.5v-22.9h24.4v-12h-24.4V267H265L265,254.8L265,254.8z M181.1,268
	c10.6,0,16.3,5.2,16.3,16c0,11.9-4.6,16.5-16.3,16.7h-7.3V268L181.1,268L181.1,268z M183.8,254.8h-25.5V314h25.5
	c18,0,29.1-10.5,29.1-29.9C212.7,265.7,201.9,254.8,183.8,254.8 M127.2,267.1c4.7,0,8.3,2.3,8.3,7.8c0,5.4-3.4,7.4-8.3,7.4h-10.3
	v-15.2L127.2,267.1L127.2,267.1z M129.6,254.8h-28.1V314H117v-19.8h12.6c13,0,21.5-5.7,21.5-20.4
	C150.9,259.7,140.6,254.8,129.6,254.8 M274.9,235.1V14.2c0-3.6-2.8-6.4-6.4-6.4H134.5h-13h-6.1c-3.6,0-8.4,2-10.9,4.5L49.5,67.2
	c-2.6,2.6-4.5,7.4-4.5,10.9v9.8v9.3v197.9c0,3.6,2.8,6.4,6.4,6.4h31.9v-19.2H64.2V97.2h70.2V27h121.3v208.1H274.9z"/>
</svg>
