<?xml version="1.0" encoding="utf-8"?>
<!-- Generator: Adobe Illustrator 28.1.0, SVG Export Plug-In . SVG Version: 6.00 Build 0)  -->
<svg version="1.1" id="bdga" xmlns="http://www.w3.org/2000/svg" xmlns:xlink="http://www.w3.org/1999/xlink" x="0px" y="0px"
	 viewBox="0 0 32 32" style="enable-background:new 0 0 32 32;" xml:space="preserve">
<style type="text/css">
	.st0{fill:#4C6586;}
</style>
<path id="schleife" class="st0" d="M22.9,4.9c-1.5-1.5-3-3-5.8-3c-0.7,0-1.6,0.1-2.5,0.4C13.7,2.6,9,3,6.7,8.4
	C6,11,6.6,12.1,7.2,14.8c0.8,3.2,4.3,5.3,4.6,5.3l-2,9.8l6-3.8l6,3.8l-2.1-10c0.4-0.1,4.3-2,5.3-4.9C26,11,25,7,22.9,4.9z M16,17.9
	c-3.6,0-6.6-3-6.6-6.6c0-3.6,3-6.6,6.6-6.6s6.6,3,6.6,6.6C22.6,14.9,19.6,17.9,16,17.9z"/>
<path id="kreis" class="st0" d="M10.5,11.3c0,3,2.5,5.5,5.5,5.5s5.5-2.5,5.5-5.5S19,5.8,16,5.8C13,5.8,10.5,8.3,10.5,11.3"/>
</svg>
