<?xml version="1.0" encoding="utf-8"?>
<!-- Generator: Adobe Illustrator 28.1.0, SVG Export Plug-In . SVG Version: 6.00 Build 0)  -->
<svg version="1.1" id="icon_x5F_cert" xmlns="http://www.w3.org/2000/svg" xmlns:xlink="http://www.w3.org/1999/xlink" x="0px"
	 y="0px" viewBox="0 0 32 32" style="enable-background:new 0 0 32 32;" xml:space="preserve">
<style type="text/css">
	.st0{fill:#4C6586;}
</style>
<path id="Schleife" class="st0" d="M22.5,19c0.5-0.3,0.9-0.7,1.5-1.4c1-1.3,1.1-2.5,1.2-4.1c0.1-1.6-1.2-3.7-1.2-4.1
	c0-0.4,0.2-1.5,0.1-2.2C24,6.5,23.7,5.8,23,4.9c-0.7-0.9-2.1-2.8-4.1-3.2c-0.8-0.2-1.4-0.2-1.9-0.2h-0.2c-1.3,0-1.5,0.5-2.2,0.7
	c-0.9,0.3-3.3,0.3-4.7,2.3C8.9,5.9,7.3,6,6.7,8.4c-0.3,1.3-0.4,2.6,0,3.8c0.4,1.1,0.5,1.4,0.5,2.6s0,1.8,0.8,2.9
	c0.4,0.7,0.8,1.1,1.4,1.5L6,28.4l3.5-0.7l2.2,2.8l3.5-9.6c0.5,0.2,0.8,0.2,1.4,0.1c0.1,0,0.2,0,0.3-0.1l3.4,9.6l2.2-2.8l3.5,0.7
	L22.5,19z M16,18c-3.6,0-6.6-3-6.6-6.6c0-3.6,3-6.6,6.6-6.6s6.6,3,6.6,6.6C22.6,15,19.6,18,16,18z"/>
<path id="Kreis" class="st0" d="M10.5,11.5c0,3,2.5,5.5,5.5,5.5s5.5-2.5,5.5-5.5S19,6,16,6S10.5,8.5,10.5,11.5"/>
</svg>
