<?xml version="1.0" encoding="UTF-8" standalone="no"?>
<!DOCTYPE svg PUBLIC "-//W3C//DTD SVG 1.1//EN" "http://www.w3.org/Graphics/SVG/1.1/DTD/svg11.dtd">
<svg width="100px" height="60px" version="1.1" xmlns="http://www.w3.org/2000/svg" xmlns:xlink="http://www.w3.org/1999/xlink" xml:space="preserve" xmlns:serif="http://www.serif.com/" style="fill-rule:evenodd;clip-rule:evenodd;stroke-linecap:round;stroke-linejoin:round;stroke-miterlimit:1.5;">
    <g>
        <circle cx="81" cy="20" r="9" style="fill:rgb(51,51,51);"/>
        <path d="M28.711,26.716L20.781,26.716L20.781,25.716L26.929,16.482L20.992,16.482L20.992,15.294L28.547,15.294L28.547,16.294L22.39,25.529L28.711,25.529L28.711,26.716Z" style="fill:rgb(51,51,51);fill-rule:nonzero;"/>
        <path d="M38.078,22.419C38.078,23.122 37.987,23.75 37.804,24.302C37.622,24.854 37.359,25.32 37.015,25.701C36.672,26.081 36.256,26.371 35.769,26.572C35.282,26.772 34.731,26.872 34.117,26.872C33.544,26.872 33.019,26.772 32.543,26.572C32.066,26.371 31.655,26.081 31.308,25.701C30.962,25.32 30.694,24.854 30.504,24.302C30.314,23.75 30.218,23.122 30.218,22.419C30.218,21.482 30.377,20.684 30.695,20.025C31.013,19.366 31.467,18.863 32.058,18.517C32.649,18.171 33.354,17.997 34.172,17.997C34.953,17.997 35.636,18.172 36.222,18.521C36.808,18.87 37.264,19.374 37.59,20.033C37.915,20.691 38.078,21.487 38.078,22.419ZM31.562,22.419C31.562,23.107 31.653,23.703 31.836,24.208C32.018,24.714 32.299,25.104 32.679,25.38C33.06,25.656 33.549,25.794 34.148,25.794C34.742,25.794 35.23,25.656 35.613,25.38C35.996,25.104 36.278,24.714 36.461,24.208C36.643,23.703 36.734,23.107 36.734,22.419C36.734,21.737 36.643,21.147 36.461,20.65C36.278,20.152 35.997,19.768 35.617,19.497C35.237,19.227 34.745,19.091 34.14,19.091C33.25,19.091 32.597,19.385 32.183,19.974C31.769,20.562 31.562,21.378 31.562,22.419Z" style="fill:rgb(51,51,51);fill-rule:nonzero;"/>
        <path d="M47.703,22.419C47.703,23.122 47.612,23.75 47.429,24.302C47.247,24.854 46.984,25.32 46.64,25.701C46.297,26.081 45.881,26.371 45.394,26.572C44.907,26.772 44.356,26.872 43.742,26.872C43.169,26.872 42.644,26.772 42.168,26.572C41.691,26.371 41.28,26.081 40.933,25.701C40.587,25.32 40.319,24.854 40.129,24.302C39.939,23.75 39.843,23.122 39.843,22.419C39.843,21.482 40.002,20.684 40.32,20.025C40.638,19.366 41.092,18.863 41.683,18.517C42.274,18.171 42.979,17.997 43.797,17.997C44.578,17.997 45.261,18.172 45.847,18.521C46.433,18.87 46.889,19.374 47.215,20.033C47.54,20.691 47.703,21.487 47.703,22.419ZM41.187,22.419C41.187,23.107 41.278,23.703 41.461,24.208C41.643,24.714 41.924,25.104 42.304,25.38C42.685,25.656 43.174,25.794 43.773,25.794C44.367,25.794 44.855,25.656 45.238,25.38C45.621,25.104 45.903,24.714 46.086,24.208C46.268,23.703 46.359,23.107 46.359,22.419C46.359,21.737 46.268,21.147 46.086,20.65C45.903,20.152 45.622,19.768 45.242,19.497C44.862,19.227 44.37,19.091 43.765,19.091C42.875,19.091 42.222,19.385 41.808,19.974C41.394,20.562 41.187,21.378 41.187,22.419Z" style="fill:rgb(51,51,51);fill-rule:nonzero;"/>
        <path d="M59.242,17.997C60.185,17.997 60.896,18.243 61.375,18.736C61.854,19.228 62.093,20.018 62.093,21.107L62.093,26.716L60.812,26.716L60.812,21.169C60.812,20.477 60.662,19.957 60.363,19.611C60.064,19.264 59.62,19.091 59.031,19.091C58.203,19.091 57.601,19.331 57.226,19.81C56.851,20.289 56.664,20.995 56.664,21.927L56.664,26.716L55.375,26.716L55.375,21.169C55.375,20.706 55.308,20.32 55.176,20.013C55.043,19.706 54.845,19.475 54.582,19.322C54.319,19.168 53.987,19.091 53.586,19.091C53.018,19.091 52.562,19.208 52.218,19.443C51.875,19.677 51.626,20.025 51.472,20.486C51.319,20.947 51.242,21.513 51.242,22.185L51.242,26.716L49.945,26.716L49.945,18.154L50.992,18.154L51.187,19.365L51.258,19.365C51.429,19.068 51.646,18.818 51.906,18.615C52.166,18.411 52.458,18.258 52.781,18.154C53.104,18.049 53.448,17.997 53.812,17.997C54.463,17.997 55.009,18.118 55.449,18.361C55.889,18.603 56.208,18.971 56.406,19.466L56.476,19.466C56.758,18.971 57.143,18.603 57.633,18.361C58.122,18.118 58.659,17.997 59.242,17.997Z" style="fill:rgb(51,51,51);fill-rule:nonzero;"/>
        <rect x="9.183" y="10" width="1" height="20" style="fill:rgb(51,51,51);"/>
        <g>
            <path d="M77.71,20L84.29,20" style="fill:none;stroke:rgb(245,244,245);stroke-width:2px;"/>
            <path d="M81,16.71L81,23.29" style="fill:none;stroke:rgb(245,244,245);stroke-width:2px;"/>
        </g>
    </g>
</svg>
