<?xml version="1.0" encoding="utf-8"?>
<!-- Generator: Adobe Illustrator 28.1.0, SVG Export Plug-In . SVG Version: 6.00 Build 0)  -->
<svg version="1.1" id="icon_x5F_cals" xmlns="http://www.w3.org/2000/svg" xmlns:xlink="http://www.w3.org/1999/xlink" x="0px"
	 y="0px" width="32px" height="32px" viewBox="0 0 32 32" style="enable-background:new 0 0 32 32;" xml:space="preserve">
<style type="text/css">
	.st0{fill:#4C6586;}
</style>
<path id="kalender" class="st0" d="M25,8V4.5c0,0,0-0.5-0.5-0.5h-17C7.5,4,7,4,7,4.5v5c0,0,0,0,0,0V28h13v0l5-5h0L25,8L25,8z M19,22
	v5H8V10h16v12H19z"/>
<path id="fuenf" class="st0" d="M13.2,13l-0.1,4.8c0.7-0.2,1.3-0.3,1.9-0.3c0.3,0,0.6,0,0.8,0.1c0.3,0,0.5,0.1,0.7,0.2
	c0.2,0.1,0.3,0.3,0.5,0.5c0.1,0.2,0.2,0.4,0.2,0.7c0,0.3-0.1,0.6-0.2,0.8c-0.1,0.2-0.3,0.4-0.5,0.5c-0.2,0.1-0.4,0.2-0.7,0.3
	c-0.3,0.1-0.5,0.1-0.8,0.1c-0.3,0-0.7,0-1-0.1c-0.3-0.1-0.7-0.1-1-0.3l-0.1,1.4c0.4,0.1,0.8,0.2,1.2,0.3s0.8,0.1,1.2,0.1
	c0.5,0,0.9-0.1,1.4-0.2c0.5-0.1,0.9-0.3,1.2-0.6c0.4-0.2,0.6-0.6,0.9-0.9c0.2-0.4,0.3-0.8,0.3-1.4c0-0.5-0.1-0.9-0.3-1.2
	c-0.2-0.3-0.4-0.6-0.7-0.8c-0.3-0.2-0.6-0.4-1-0.4c-0.4-0.1-0.8-0.1-1.2-0.1c-0.2,0-0.3,0-0.5,0c-0.2,0-0.4,0-0.5,0.1l0.1-2.1h3.7
	V13C18.7,13,13.2,13,13.2,13z"/>
</svg>
