<?xml version="1.0" encoding="utf-8"?>
<!-- Generator: Adobe Illustrator 28.1.0, SVG Export Plug-In . SVG Version: 6.00 Build 0)  -->
<svg version="1.1" id="Layer_1" xmlns="http://www.w3.org/2000/svg" xmlns:xlink="http://www.w3.org/1999/xlink" x="0px" y="0px" width="32px" height="32px" 
	 viewBox="0 0 32 32" style="enable-background:new 0 0 32 32;" xml:space="preserve">
<style type="text/css">
	.st0{fill:#4C6586;}
</style>
<g>
	<g>
		<path class="st0" d="M16.9,12.4c0.8-2.5,0.3-5.3-1.6-7.3C12.5,2.3,8,2.3,5.2,5c-2.8,2.8-2.9,7.3-0.1,10.1c1.9,2,4.7,2.6,7.2,1.8
			l3.3,3.4l2.3,0.5l0.4,2.3l2.3,0.5l0.4,2.3l2.3,0.5l0.4,2.3l4.6,0.1l0.1-4.6L16.9,12.4z M9.8,9.6c-0.8,0.8-2,0.8-2.8,0
			c-0.8-0.7-0.8-2,0-2.7c0.8-0.8,2-0.7,2.8-0.1C10.6,7.6,10.6,8.8,9.8,9.6z"/>
	</g>
</g>
</svg>
