<?xml version="1.0" encoding="utf-8"?>
<!-- Generator: Adobe Illustrator 25.0.1, SVG Export Plug-In . SVG Version: 6.00 Build 0)  -->
<svg version="1.1" id="Ebene_1" xmlns="http://www.w3.org/2000/svg" xmlns:xlink="http://www.w3.org/1999/xlink" x="0px" y="0px"
	 viewBox="0 0 32 32" style="enable-background:new 0 0 32 32;" xml:space="preserve">
<style type="text/css">
	.st0{fill:#000000;}
	.st1{fill:#000000;}
</style>
<g>
	<path id="path1416" class="st0" d="M2.5,28.8c0-0.8,1.9-1.7,3.1-2h0.1l7.7-3c0.4-0.2,0.7-0.6,0.6-1v-2.7c0-0.4-0.2-0.7-0.6-0.9
		c-2-1-3.3-3.1-3.3-5.4c0-0.5-0.4-1-1-1v-2c0.5,0,1-0.4,1-1v-2c0-3.3,2.6-5.9,5.8-5.9s5.8,2.7,5.8,5.9v2c0,0.5,0.4,1,1,1v2h1.9v-2
		c0-0.7-0.4-1.4-1-1.7V8.1c0-4.4-3.5-7.9-7.7-7.9c-4.3,0-7.7,3.5-7.7,7.9v1.3c-0.6,0.4-1,1-1,1.7v2c0,0.7,0.4,1.4,1,1.7
		c0.3,2.5,1.7,4.8,3.9,6.1v1.4l-7.1,2.7c-0.9,0.2-4.5,1.4-4.5,4v2c0,0.5,0.4,1,1,1H15v-2H2.5V28.8z"/>
	<g id="g1441">
		<path id="path1418" class="st1" d="M23.7,16c-4.3,0-7.7,3.5-7.7,7.9s3.5,7.9,7.7,7.9s7.7-3.5,7.7-7.9l0,0C31.4,19.5,28,16,23.7,16
			z M23.7,29.8c-3.2,0-5.8-2.7-5.8-5.9s2.6-5.9,5.8-5.9s5.8,2.7,5.8,5.9S26.9,29.8,23.7,29.8C23.7,29.8,23.7,29.8,23.7,29.8z"/>
		<g id="g1435" transform="rotate(45,20.992063,22.819445)">
			
				<rect id="rect1420" x="19.7" y="20.7" transform="matrix(2.535181e-06 1 -1 2.535181e-06 45.3479 -2.0127)" class="st1" width="7.9" height="1.9"/>
			
				<rect id="rect1420-9" x="22.7" y="17.6" transform="matrix(2.535182e-06 1 -1 2.535182e-06 45.1614 -2.106)" class="st1" width="1.9" height="7.9"/>
		</g>
	</g>
</g>
</svg>
