<?xml version="1.0" encoding="utf-8"?>
<!-- Generator: Adobe Illustrator 25.0.1, SVG Export Plug-In . SVG Version: 6.00 Build 0)  -->
<svg version="1.1" id="Ebene_1" xmlns="http://www.w3.org/2000/svg" xmlns:xlink="http://www.w3.org/1999/xlink" x="0px" y="0px"
	 viewBox="0 0 32 32" style="enable-background:new 0 0 32 32;" xml:space="preserve">
<style type="text/css">
	.st0{fill:#000000;}
</style>
<g>
	<path id="path1416" class="st0" d="M2.5,26.5c0-0.7,1.7-1.5,2.9-1.8h0.1l7.1-2.7c0.4-0.1,0.6-0.5,0.6-0.9v-2.4
		c0-0.3-0.2-0.7-0.5-0.8c-1.9-0.9-3-2.8-3-4.9c0-0.5-0.4-0.9-0.9-0.9v-1.8c0.5,0,0.9-0.4,0.9-0.9V7.4c0-3,2.4-5.4,5.3-5.4
		s5.3,2.4,5.3,5.4v1.8c0,0.5,0.4,0.9,0.9,0.9v1.8h1.8v-1.8c0-0.6-0.3-1.2-0.9-1.6V7.4c0-4-3.2-7.3-7.1-7.3c-3.9,0-7.1,3.3-7.1,7.3
		v1.2c-0.5,0.3-0.9,0.9-0.9,1.6v1.8c0,0.7,0.3,1.3,0.9,1.6c0.2,2.3,1.6,4.4,3.5,5.6v1.3l-6.5,2.5c-0.8,0.2-4.2,1.2-4.2,3.6v1.8
		c0,0.5,0.4,0.9,0.9,0.9H14v-1.8H2.5V26.5z"/>
	<path id="path1418" d="M22,14.7c-3.9,0-7.1,3.3-7.1,7.3s3.2,7.3,7.1,7.3s7.1-3.3,7.1-7.3l0,0C29.1,17.9,25.9,14.7,22,14.7z
		 M22,27.4c-2.9,0-5.3-2.4-5.3-5.4s2.4-5.4,5.3-5.4s5.3,2.4,5.3,5.4S24.9,27.4,22,27.4C22,27.4,22,27.4,22,27.4z"/>
	
		<rect id="rect1420-9" x="27.5" y="25.1" transform="matrix(0.7071 -0.7071 0.7071 0.7071 -12.003 28.4584)" width="1.8" height="7.2"/>
</g>
</svg>
