<?xml version="1.0" encoding="utf-8"?>
<!-- Generator: Adobe Illustrator 25.0.1, SVG Export Plug-In . SVG Version: 6.00 Build 0)  -->
<svg version="1.1" id="Ebene_1" xmlns="http://www.w3.org/2000/svg" xmlns:xlink="http://www.w3.org/1999/xlink" x="0px" y="0px"
	 viewBox="0 0 32 32" style="enable-background:new 0 0 32 32;" xml:space="preserve">
<style type="text/css">
	.st0{fill:#000000;}
</style>
<g>
	<path id="path1416" class="st0" d="M12.5,2.4c-3.4,0-6.2,2.8-6.2,6.3v1c-0.5,0.3-0.8,0.8-0.8,1.4v1.6c0,0.6,0.3,1.1,0.8,1.4
		c0.2,2,1.4,3.8,3.1,4.9V20l-5.6,2.1c-0.7,0.2-3.6,1.1-3.6,3.2v1.6c0,0.4,0.3,0.8,0.8,0.8h6.4v-0.3c0-0.5,0.2-0.9,0.4-1.3h-6v-0.8
		c0-0.6,1.5-1.3,2.5-1.6h0.1l6.2-2.4c0.3-0.1,0.5-0.4,0.5-0.8v-2.1c0-0.3-0.2-0.6-0.4-0.7c-1.6-0.8-2.6-2.4-2.6-4.3
		c0-0.4-0.3-0.8-0.8-0.8v-1.6c0.4,0,0.8-0.4,0.8-0.8V8.7c0-4.4,5.4-6.4,8.2-3c0.4-0.3,0.9-0.6,1.4-0.8C16.2,3.3,14.4,2.4,12.5,2.4z"
		/>
	<path id="path1416-1-0" class="st0" d="M8.8,27.4c0-0.6,1.5-1.3,2.5-1.6h0.1l6.2-2.4c0.3-0.1,0.5-0.4,0.5-0.8v-2.1
		c0-0.3-0.2-0.6-0.4-0.7c-1.6-0.8-2.6-2.4-2.6-4.3c0-0.4-0.3-0.8-0.8-0.8v-1.6c0.4,0,0.8-0.4,0.8-0.8v-1.6c0-2.6,2.1-4.7,4.6-4.7
		c2.6,0,4.6,2.1,4.6,4.7v1.6c0,0.4,0.3,0.8,0.8,0.8v1.6h1.5v-1.6c0-0.6-0.3-1.1-0.8-1.4v-1c0-3.5-2.8-6.3-6.2-6.3s-6.2,2.8-6.2,6.3
		v1c-0.5,0.3-0.8,0.8-0.8,1.4v1.6c0,0.6,0.3,1.1,0.8,1.4c0.2,2,1.4,3.8,3.1,4.9v1.1l-5.6,2.1c-0.7,0.2-3.6,1.1-3.6,3.2v1.6
		c0,0.4,0.3,0.8,0.8,0.8l0,0h10.8v-1.6h-10V27.4z"/>
	<path id="path1416-1-0-5" class="st0" d="M30.4,27.4c0-0.6-1.5-1.3-2.5-1.6h-0.1l-6.2-2.4c-0.3-0.1-0.5-0.4-0.5-0.8v-2.1
		c0-0.3,0.2-0.6,0.4-0.7c1.6-0.8,2.6-2.4,2.6-4.3c0-0.4,0.3-0.8,0.8-0.8v-1.6c-0.4,0-0.8-0.4-0.8-0.8v-1.6c0-6.3-9.2-6.3-9.2,0v1.6
		c0,0.4-0.3,0.8-0.8,0.8v1.6h-1.5v-1.6c0-0.6,0.3-1.1,0.8-1.4v-1c0-8.4,12.3-8.4,12.3,0v1c0.5,0.3,0.8,0.8,0.8,1.4v1.6
		c0,0.6-0.3,1.1-0.8,1.4c-0.2,2-1.4,3.8-3.1,4.9v1.1l5.6,2.1c0.7,0.2,3.6,1.1,3.6,3.2v1.6c0,0.4-0.3,0.8-0.8,0.8H16.9l1.1-1.6h12.4
		V27.4z"/>
</g>
</svg>
