<?xml version="1.0" encoding="utf-8"?>
<svg version="1.1" id="Ebene_1" xmlns="http://www.w3.org/2000/svg" xmlns:xlink="http://www.w3.org/1999/xlink"
     x="0px" y="0px" viewBox="0 0 32 32" style="enable-background:new 0 0 32 32;" xml:space="preserve">
  <g>
    <path
       d="m 2,29 c 0,-0.78 1.92,-1.7 3.24,-2 h 0.11 l 8,-3 A 1,1 0 0 0 14,23 V 20.31 A 1,1 0 0 0 13.43,19.41 6,6 0 0 1 10,14 1,1 0 0 0 9,13 v -2 a 1,1 0 0 0 1,-1 V 8 a 6,6 0 0 1 12,0 v 2 a 1,1 0 0 0 1,1 v 2 h 2 V 11 A 2,2 0 0 0 24,9.27 V 8 A 8,8 0 0 0 8,8 V 9.27 A 2,2 0 0 0 7,11 v 2 a 2,2 0 0 0 1,1.75 8.07,8.07 0 0 0 4,6.16 V 22.3 L 4.7,25 C 3.79,25.23 0,26.37 0,29 v 2 a 1,1 0 0 0 1,1 H 15 V 30 H 2 Z" style="fill:#000000" />
    <path
       d="m 24,16 a 8,8 0 1 0 8,8 8,8 0 0 0 -8,-8 z m 0,14 a 6,6 0 1 1 6,-6 6,6 0 0 1 -6,6 z"
       id="path1418"
       style="fill:#000000" />
    <rect
       height="4"
       width="2"
       x="23"
       y="20"
       id="rect1420"
       style="fill:#000000" />
    <rect
       height="2"
       width="2"
       x="23"
       y="26"
       id="rect1422"
       style="fill:#000000" />
  </g>
</svg>
